<svg width="46" height="46" viewBox="0 0 46 46" fill="none" xmlns="http://www.w3.org/2000/svg">
<path d="M0.5 45.5L3.66312 33.9444C1.71125 30.5619 0.685625 26.7275 0.6875 22.7956C0.693125 10.5032 10.6962 0.500061 22.9868 0.500061C28.9512 0.501936 34.5499 2.82506 38.7612 7.04005C42.9705 11.255 45.288 16.8575 45.2862 22.8163C45.2805 35.1106 35.2774 45.1137 22.9868 45.1137C19.2556 45.1118 15.5787 44.1762 12.3218 42.3987L0.5 45.5ZM12.8693 38.3619C16.0118 40.2275 19.0118 41.345 22.9793 41.3468C33.1943 41.3468 41.5155 33.0331 41.5212 22.8125C41.5249 12.5713 33.243 4.2688 22.9943 4.26505C12.7718 4.26505 4.45624 12.5788 4.45249 22.7975C4.45062 26.9694 5.67311 30.0931 7.72623 33.3612L5.85311 40.2012L12.8693 38.3619ZM34.2199 28.1169C34.0812 27.8844 33.7099 27.7456 33.1512 27.4663C32.5943 27.1869 29.8549 25.8388 29.3431 25.6531C28.8331 25.4675 28.4618 25.3738 28.0887 25.9325C27.7174 26.4894 26.6487 27.7456 26.3243 28.1169C25.9999 28.4881 25.6737 28.535 25.1168 28.2556C24.5599 27.9763 22.7637 27.3894 20.6356 25.49C18.98 24.0125 17.8606 22.1881 17.5362 21.6294C17.2118 21.0725 17.5025 20.7706 17.78 20.4931C18.0312 20.2438 18.3368 19.8425 18.6162 19.5163C18.8993 19.1938 18.9912 18.9613 19.1787 18.5881C19.3643 18.2169 19.2725 17.8906 19.1318 17.6113C18.9912 17.3338 17.8775 14.5907 17.4143 13.475C16.9606 12.3894 16.5012 12.5357 16.16 12.5188L15.0912 12.5C14.72 12.5 14.1162 12.6388 13.6062 13.1975C13.0962 13.7563 11.6562 15.1025 11.6562 17.8456C11.6562 20.5888 13.6531 23.2381 13.9306 23.6094C14.21 23.9806 17.8587 29.6094 23.4481 32.0225C24.7774 32.5962 25.8162 32.9394 26.6243 33.1962C27.9593 33.62 29.1743 33.56 30.1343 33.4175C31.2049 33.2581 33.4305 32.0694 33.8955 30.7681C34.3605 29.465 34.3605 28.3494 34.2199 28.1169Z" fill="white"/>
</svg>
